<svg width="300" height="300" viewBox="0 0 300 300" fill="none" xmlns="http://www.w3.org/2000/svg">
  <rect width="300" height="300" fill="#F3F4F6" />
  <path d="M150 125C137.574 125 127.5 135.074 127.5 147.5C127.5 159.926 137.574 170 150 170C162.426 170 172.5 159.926 172.5 147.5C172.5 135.074 162.426 125 150 125ZM150 162.5C141.715 162.5 135 155.785 135 147.5C135 139.215 141.715 132.5 150 132.5C158.285 132.5 165 139.215 165 147.5C165 155.785 158.285 162.5 150 162.5Z" fill="#9CA3AF"/>
  <path d="M187.5 93.75H112.5C102.785 93.75 95 101.535 95 111.25V188.75C95 198.465 102.785 206.25 112.5 206.25H187.5C197.215 206.25 205 198.465 205 188.75V111.25C205 101.535 197.215 93.75 187.5 93.75ZM197.5 188.75C197.5 194.273 193.023 198.75 187.5 198.75H112.5C106.977 198.75 102.5 194.273 102.5 188.75V111.25C102.5 105.727 106.977 101.25 112.5 101.25H187.5C193.023 101.25 197.5 105.727 197.5 111.25V188.75Z" fill="#9CA3AF"/>
  <path d="M180 135C185.523 135 190 130.523 190 125C190 119.477 185.523 115 180 115C174.477 115 170 119.477 170 125C170 130.523 174.477 135 180 135Z" fill="#9CA3AF"/>
  <path d="M188.75 198.75L157.5 170L150 177.5L120 147.5L102.5 165V188.75H188.75Z" fill="#9CA3AF"/>
</svg>
